<svg width="28" height="28" viewBox="0 0 28 28" fill="none" xmlns="http://www.w3.org/2000/svg">
<rect width="28" height="28" rx="13.8409" fill="#FD5D69"/>
<path d="M14.0807 8.91296C14.0807 8.91296 13.7336 9.2015 13.3744 9.71549C12.9416 10.3347 12.4914 11.2813 12.61 12.4447" fill="#FD5D69"/>
<path d="M14.0807 8.91296C14.0807 8.91296 13.7336 9.2015 13.3744 9.71549M12.61 12.4447C12.4914 11.2813 12.9416 10.3347 13.3744 9.71549M13.3744 9.71549C13.7911 9.12125 14.3084 8.66124 14.8375 8.31127M14.8375 8.31127C15.769 7.6951 16.737 7.42 17.2567 7.35388C17.8642 7.32972 18.4703 7.42907 19.0383 7.64587C19.6063 7.86268 20.1245 8.19243 20.5614 8.61522C22.4509 10.4669 22.7283 13.9583 21.0205 16.0193C19.3126 18.0803 16.5125 18.9936 14.7896 21.0899C14.5104 21.4234 14.2724 21.7893 14.0807 22.1797C13.8898 21.7894 13.6527 21.4235 13.3744 21.0899C11.6489 18.9936 8.86623 18.1005 7.14072 16.0193C5.41521 13.9381 5.71044 10.4694 7.59993 8.61522C8.61218 7.40435 10.9273 5.83781 14.8375 8.31127Z" stroke="#FFFDF9" stroke-linecap="round" stroke-linejoin="round"/>
</svg>
